<svg viewBox="0 0 1200 800" xmlns="http://www.w3.org/2000/svg" font-family="'Segoe UI', system-ui, -apple-system, sans-serif">
  <style>
    .bg { fill: url(#bgL); }
    .gw { opacity: 0.05; }
    .card { fill: #ffffff; stroke: #e2e8f0; }
    .section { fill: #ffffff; stroke: #e2e8f0; }
    .tt { fill: #0f172a; }
    .ts { fill: #64748b; }
    .tp { fill: #1e293b; }
    .tc { fill: #64748b; }
    .tw { fill: #ffffff; }
    .dv { stroke: #e2e8f0; }
    .metric-card { fill: #f8fafc; stroke: #e2e8f0; }
    .center-bar { fill: #f1f5f9; stroke: #e2e8f0; }

    @media (prefers-color-scheme: dark) {
      .bg { fill: url(#bgD); }
      .gw { opacity: 0.025; }
      .card { fill: #1a2444; stroke: #2a3a5c; }
      .section { fill: #131b30; stroke: #2a3a5c; }
      .tt { fill: #f0f6fc; }
      .ts { fill: #8899bb; }
      .tp { fill: #ccd6f6; }
      .tc { fill: #8899bb; }
      .dv { stroke: #2a3a5c; }
      .metric-card { fill: #111833; stroke: #2a3a5c; }
      .center-bar { fill: #0f1629; stroke: #2a3a5c; }
    }

    @keyframes dashF { to { stroke-dashoffset: -20; } }
    .df { stroke-dasharray: 6 4; animation: dashF 1.2s linear infinite; }
    @keyframes pulseG { 0%,100% { opacity:0.5; } 50% { opacity:1; } }
    .pg { animation: pulseG 2.5s ease-in-out infinite; }
    @keyframes fUp { from { opacity:0; transform:translateY(10px); } to { opacity:1; transform:translateY(0); } }
    .fu { animation: fUp 0.5s ease-out both; }
    @keyframes breathe { 0%,100% { r:6; opacity:0.7; } 50% { r:8; opacity:1; } }
    .breathe { animation: breathe 2s ease-in-out infinite; }
  </style>

  <defs>
    <linearGradient id="bgL" x1="0%" y1="0%" x2="0%" y2="100%">
      <stop offset="0%" stop-color="#f0f4f8"/><stop offset="100%" stop-color="#e2e8f0"/>
    </linearGradient>
    <linearGradient id="bgD" x1="0%" y1="0%" x2="0%" y2="100%">
      <stop offset="0%" stop-color="#0a0e17"/><stop offset="100%" stop-color="#141b2b"/>
    </linearGradient>
    <linearGradient id="gEC2" x1="0%" y1="0%" x2="100%" y2="100%">
      <stop offset="0%" stop-color="#FF9900"/><stop offset="100%" stop-color="#E07C1F"/>
    </linearGradient>
    <linearGradient id="gRDS" x1="0%" y1="0%" x2="100%" y2="100%">
      <stop offset="0%" stop-color="#9C27B0"/><stop offset="100%" stop-color="#7B1FA2"/>
    </linearGradient>
    <linearGradient id="gBill" x1="0%" y1="0%" x2="100%" y2="100%">
      <stop offset="0%" stop-color="#FF5722"/><stop offset="100%" stop-color="#E64A19"/>
    </linearGradient>
    <linearGradient id="gLog" x1="0%" y1="0%" x2="100%" y2="100%">
      <stop offset="0%" stop-color="#2E7D32"/><stop offset="100%" stop-color="#1B5E20"/>
    </linearGradient>
    <linearGradient id="gCW" x1="0%" y1="0%" x2="100%" y2="100%">
      <stop offset="0%" stop-color="#F58536"/><stop offset="100%" stop-color="#D96B2A"/>
    </linearGradient>
    <linearGradient id="gAlarm" x1="0%" y1="0%" x2="100%" y2="100%">
      <stop offset="0%" stop-color="#E53935"/><stop offset="100%" stop-color="#C62828"/>
    </linearGradient>
    <linearGradient id="gDash" x1="0%" y1="0%" x2="100%" y2="100%">
      <stop offset="0%" stop-color="#1A73E8"/><stop offset="100%" stop-color="#1565C0"/>
    </linearGradient>
    <linearGradient id="gSNS" x1="0%" y1="0%" x2="100%" y2="100%">
      <stop offset="0%" stop-color="#FF4F8B"/><stop offset="100%" stop-color="#CC2266"/>
    </linearGradient>

    <filter id="sh" x="-6%" y="-6%" width="112%" height="118%">
      <feDropShadow dx="0" dy="3" stdDeviation="6" flood-color="#000" flood-opacity="0.15"/>
    </filter>
    <filter id="gl" x="-20%" y="-20%" width="140%" height="140%">
      <feGaussianBlur stdDeviation="2" result="b"/>
      <feMerge><feMergeNode in="b"/><feMergeNode in="SourceGraphic"/></feMerge>
    </filter>

    <marker id="aO" markerWidth="9" markerHeight="6" refX="8" refY="3" orient="auto">
      <polygon points="0 0,9 3,0 6" fill="#FF9900"/>
    </marker>
    <marker id="aP" markerWidth="9" markerHeight="6" refX="8" refY="3" orient="auto">
      <polygon points="0 0,9 3,0 6" fill="#9C27B0"/>
    </marker>
    <marker id="aR" markerWidth="9" markerHeight="6" refX="8" refY="3" orient="auto">
      <polygon points="0 0,9 3,0 6" fill="#FF5722"/>
    </marker>
    <marker id="aGr" markerWidth="9" markerHeight="6" refX="8" refY="3" orient="auto">
      <polygon points="0 0,9 3,0 6" fill="#2E7D32"/>
    </marker>
    <marker id="aCW" markerWidth="9" markerHeight="6" refX="8" refY="3" orient="auto">
      <polygon points="0 0,9 3,0 6" fill="#F58536"/>
    </marker>
    <marker id="aAl" markerWidth="9" markerHeight="6" refX="8" refY="3" orient="auto">
      <polygon points="0 0,9 3,0 6" fill="#E53935"/>
    </marker>
    <marker id="aSN" markerWidth="9" markerHeight="6" refX="8" refY="3" orient="auto">
      <polygon points="0 0,9 3,0 6" fill="#FF4F8B"/>
    </marker>

    <pattern id="grid" width="30" height="30" patternUnits="userSpaceOnUse">
      <path d="M 30 0 L 0 0 0 30" fill="none" stroke="#94a3b8" stroke-width="0.5"/>
    </pattern>
  </defs>

  <rect width="1200" height="800" class="bg"/>
  <g class="gw"><rect width="1200" height="800" fill="url(#grid)"/></g>

  <!-- ═══ TITLE ═══ -->
  <text x="600" y="36" text-anchor="middle" font-size="24" font-weight="700" class="tt" filter="url(#gl)">AWS CloudWatch Monitoring Architecture</text>
  <text x="600" y="56" text-anchor="middle" font-size="12" class="ts">Metrics → Alarms → SNS → Email | Dashboard visualization</text>
  <line x1="380" y1="66" x2="820" y2="66" stroke="url(#gCW)" stroke-width="2" stroke-linecap="round" opacity="0.4"/>

  <!-- ═══════════════════════════════════════════ -->
  <!-- ROW 1: METRIC SOURCES                       -->
  <!-- ═══════════════════════════════════════════ -->
  <text x="40" y="92" font-size="11" font-weight="700" letter-spacing="1" class="ts">METRIC SOURCES</text>

  <!-- EC2 Metrics Card -->
  <g class="fu" style="animation-delay:0.1s">
    <rect x="30" y="102" width="260" height="165" rx="12" class="card" stroke-width="1.5" filter="url(#sh)"/>
    <rect x="30" y="102" width="260" height="42" rx="12" fill="url(#gEC2)"/>
    <rect x="30" y="132" width="260" height="12" fill="url(#gEC2)"/>
    <!-- Server icon -->
    <g transform="translate(50, 112)">
      <rect x="0" y="0" width="18" height="14" rx="2" fill="none" stroke="#fff" stroke-width="1.5"/>
      <line x1="3" y1="5" x2="15" y2="5" stroke="#fff" stroke-width="1" opacity="0.6"/>
      <line x1="3" y1="9" x2="15" y2="9" stroke="#fff" stroke-width="1" opacity="0.6"/>
      <circle cx="14" cy="3" r="1.5" fill="#4CAF50"/>
    </g>
    <text x="78" y="126" font-size="13" font-weight="700" class="tw">EC2 Metrics</text>

    <text x="50" y="168" font-size="10" class="tc">• CPUUtilization</text>
    <text x="50" y="186" font-size="10" class="tc">• NetworkIn / NetworkOut</text>
    <text x="50" y="204" font-size="10" class="tc">• StatusCheckFailed</text>
    <text x="50" y="222" font-size="10" class="tc">• DiskReadOps</text>

    <rect x="50" y="240" width="220" height="16" rx="8" fill="#FF9900" fill-opacity="0.1"/>
    <text x="160" y="252" text-anchor="middle" font-size="8" fill="#FF9900">Namespace: AWS/EC2</text>
  </g>

  <!-- RDS Metrics Card -->
  <g class="fu" style="animation-delay:0.2s">
    <rect x="320" y="102" width="260" height="165" rx="12" class="card" stroke-width="1.5" filter="url(#sh)"/>
    <rect x="320" y="102" width="260" height="42" rx="12" fill="url(#gRDS)"/>
    <rect x="320" y="132" width="260" height="12" fill="url(#gRDS)"/>
    <!-- DB icon -->
    <g transform="translate(340, 111)">
      <ellipse cx="10" cy="3" rx="10" ry="3" fill="none" stroke="#fff" stroke-width="1.5"/>
      <path d="M 0,3 L 0,13 Q 0,16 10,16 Q 20,16 20,13 L 20,3" fill="none" stroke="#fff" stroke-width="1.5"/>
    </g>
    <text x="368" y="126" font-size="13" font-weight="700" class="tw">RDS Metrics</text>

    <text x="340" y="168" font-size="10" class="tc">• CPUUtilization</text>
    <text x="340" y="186" font-size="10" class="tc">• DatabaseConnections</text>
    <text x="340" y="204" font-size="10" class="tc">• FreeStorageSpace</text>

    <rect x="340" y="240" width="220" height="16" rx="8" fill="#9C27B0" fill-opacity="0.1"/>
    <text x="450" y="252" text-anchor="middle" font-size="8" fill="#9C27B0">Namespace: AWS/RDS</text>
  </g>

  <!-- Billing Metrics Card -->
  <g class="fu" style="animation-delay:0.3s">
    <rect x="610" y="102" width="260" height="165" rx="12" class="card" stroke-width="1.5" filter="url(#sh)"/>
    <rect x="610" y="102" width="260" height="42" rx="12" fill="url(#gBill)"/>
    <rect x="610" y="132" width="260" height="12" fill="url(#gBill)"/>
    <!-- Dollar icon -->
    <g transform="translate(630, 113)">
      <circle cx="9" cy="7" r="8" fill="none" stroke="#fff" stroke-width="1.5"/>
      <text x="9" y="12" text-anchor="middle" font-size="11" font-weight="700" fill="#fff">$</text>
    </g>
    <text x="658" y="126" font-size="13" font-weight="700" class="tw">Billing Metrics</text>

    <text x="630" y="168" font-size="10" class="tc">• EstimatedCharges</text>
    <text x="630" y="186" font-size="10" class="tc">• Region: us-east-1 only</text>
    <text x="630" y="204" font-size="10" class="tc">• 6-hour delay</text>

    <rect x="630" y="240" width="220" height="16" rx="8" fill="#FF5722" fill-opacity="0.1"/>
    <text x="740" y="252" text-anchor="middle" font-size="8" fill="#FF5722">Namespace: AWS/Billing</text>
  </g>

  <!-- CloudWatch Logs Card -->
  <g class="fu" style="animation-delay:0.4s">
    <rect x="900" y="102" width="270" height="165" rx="12" class="card" stroke-width="1.5" filter="url(#sh)"/>
    <rect x="900" y="102" width="270" height="42" rx="12" fill="url(#gLog)"/>
    <rect x="900" y="132" width="270" height="12" fill="url(#gLog)"/>
    <!-- Log icon -->
    <g transform="translate(920, 112)">
      <rect x="0" y="0" width="16" height="14" rx="2" fill="none" stroke="#fff" stroke-width="1.5"/>
      <line x1="3" y1="4" x2="13" y2="4" stroke="#fff" stroke-width="1"/>
      <line x1="3" y1="7" x2="10" y2="7" stroke="#fff" stroke-width="1"/>
      <line x1="3" y1="10" x2="11" y2="10" stroke="#fff" stroke-width="1"/>
    </g>
    <text x="948" y="126" font-size="13" font-weight="700" class="tw">CloudWatch Logs</text>

    <text x="920" y="168" font-size="10" class="tc">• Metric Filter: "ERROR"</text>
    <text x="920" y="186" font-size="10" class="tc">• Custom: ApplicationErrors</text>
    <text x="920" y="204" font-size="10" class="tc">• Log group: /aws/ec2/...</text>

    <rect x="920" y="240" width="230" height="16" rx="8" fill="#2E7D32" fill-opacity="0.1"/>
    <text x="1035" y="252" text-anchor="middle" font-size="8" fill="#2E7D32">Namespace: CustomMetrics</text>
  </g>

  <!-- ═══════════════════════════════════════════ -->
  <!-- ARROWS: Sources → CloudWatch Metrics Store  -->
  <!-- ═══════════════════════════════════════════ -->
  <line x1="160" y1="269" x2="300" y2="325" stroke="#FF9900" stroke-width="2" class="df" marker-end="url(#aO)"/>
  <line x1="450" y1="269" x2="450" y2="320" stroke="#9C27B0" stroke-width="2" class="df" marker-end="url(#aP)"/>
  <line x1="740" y1="269" x2="650" y2="320" stroke="#FF5722" stroke-width="2" class="df" marker-end="url(#aR)"/>
  <line x1="1035" y1="269" x2="850" y2="320" stroke="#2E7D32" stroke-width="2" class="df" marker-end="url(#aGr)"/>

  <!-- Animated particles -->
  <circle r="3.5" fill="#FF9900" class="pg"><animateMotion dur="2s" repeatCount="indefinite" path="M 160,269 L 300,325"/></circle>
  <circle r="3.5" fill="#9C27B0" class="pg"><animateMotion dur="2s" repeatCount="indefinite" path="M 450,269 L 450,320"/></circle>
  <circle r="3.5" fill="#FF5722" class="pg"><animateMotion dur="2s" repeatCount="indefinite" path="M 740,269 L 650,320"/></circle>
  <circle r="3.5" fill="#2E7D32" class="pg"><animateMotion dur="2s" repeatCount="indefinite" path="M 1035,269 L 850,320"/></circle>

  <!-- ═══════════════════════════════════════════ -->
  <!-- CENTER: CloudWatch Metrics Store            -->
  <!-- ═══════════════════════════════════════════ -->
  <g class="fu" style="animation-delay:0.5s">
    <rect x="200" y="300" width="800" height="60" rx="12" class="center-bar" stroke-width="1.5" filter="url(#sh)"/>
    <rect x="200" y="300" width="800" height="60" rx="12" fill="url(#gCW)" fill-opacity="0.08"/>
    <rect x="200" y="300" width="5" height="60" rx="2" fill="url(#gCW)"/>

    <!-- Chart icon -->
    <g transform="translate(220, 315)">
      <polyline points="0,20 8,10 16,14 24,2" fill="none" stroke="#F58536" stroke-width="2.5" stroke-linecap="round" stroke-linejoin="round"/>
    </g>
    <text x="260" y="330" font-size="16" font-weight="700" fill="#F58536">CloudWatch Metrics Store</text>
    <text x="260" y="348" font-size="10" class="tc">AWS/EC2  ·  AWS/RDS  ·  AWS/Billing  ·  CustomMetrics</text>

    <!-- Pulsing dot -->
    <circle cx="970" cy="330" fill="#F58536" class="breathe">
      <animate attributeName="r" values="4;6;4" dur="2s" repeatCount="indefinite"/>
      <animate attributeName="opacity" values="0.5;1;0.5" dur="2s" repeatCount="indefinite"/>
    </circle>
    <text x="980" y="334" font-size="9" fill="#F58536">Live</text>
  </g>

  <!-- ═══════════════════════════════════════════ -->
  <!-- ARROWS: Metrics Store → Alarms / Dashboard  -->
  <!-- ═══════════════════════════════════════════ -->
  <line x1="400" y1="362" x2="280" y2="418" stroke="#E53935" stroke-width="2" class="df" marker-end="url(#aAl)"/>
  <line x1="750" y1="362" x2="810" y2="418" stroke="#1A73E8" stroke-width="2" class="df" marker-end="url(#aSN)"/>

  <!-- ═══════════════════════════════════════════ -->
  <!-- BOTTOM LEFT: CloudWatch Alarms              -->
  <!-- ═══════════════════════════════════════════ -->
  <g class="fu" style="animation-delay:0.6s">
    <rect x="30" y="400" width="520" height="230" rx="14" class="card" stroke-width="1.5" filter="url(#sh)"/>
    <rect x="30" y="400" width="520" height="44" rx="14" fill="url(#gAlarm)"/>
    <rect x="30" y="432" width="520" height="12" fill="url(#gAlarm)"/>
    <!-- Bell icon -->
    <g transform="translate(50, 410)">
      <path d="M 10,0 Q 10,0 5,8 L 2,14 L 18,14 L 15,8 Q 10,0 10,0" fill="none" stroke="#fff" stroke-width="1.5" stroke-linejoin="round"/>
      <line x1="8" y1="16" x2="12" y2="16" stroke="#fff" stroke-width="1.5" stroke-linecap="round"/>
    </g>
    <text x="78" y="428" font-size="14" font-weight="700" class="tw">CloudWatch Alarms (8 configured)</text>

    <!-- Alarm list - two columns -->
    <g transform="translate(50, 460)">
      <!-- Column 1 -->
      <circle cx="6" cy="4" r="4" fill="#4CAF50" class="breathe"/>
      <text x="16" y="8" font-size="10" class="tp">EC2-CPU-High</text>
      <text x="160" y="8" font-size="9" class="tc">> 70% · 300s × 2</text>

      <circle cx="6" cy="28" r="4" fill="#4CAF50"/>
      <text x="16" y="32" font-size="10" class="tp">EC2-StatusCheck-Failed</text>
      <text x="200" y="32" font-size="9" class="tc">≥ 1 · 60s × 2</text>

      <circle cx="6" cy="52" r="4" fill="#4CAF50"/>
      <text x="16" y="56" font-size="10" class="tp">EC2-NetworkIn-High</text>
      <text x="180" y="56" font-size="9" class="tc">> 5MB · 300s × 1</text>

      <circle cx="6" cy="76" r="4" fill="#4CAF50"/>
      <text x="16" y="80" font-size="10" class="tp">RDS-CPU-High</text>
      <text x="160" y="80" font-size="9" class="tc">> 80% · 300s × 2</text>

      <!-- Column 2 -->
      <circle cx="260" cy="4" r="4" fill="#4CAF50"/>
      <text x="270" y="8" font-size="10" class="tp">RDS-Storage-Low</text>
      <text x="400" y="8" font-size="9" class="tc">&lt; 2GB</text>

      <circle cx="260" cy="28" r="4" fill="#4CAF50"/>
      <text x="270" y="32" font-size="10" class="tp">RDS-Connections-High</text>
      <text x="420" y="32" font-size="9" class="tc">> 50</text>

      <circle cx="260" cy="52" r="4" fill="#4CAF50"/>
      <text x="270" y="56" font-size="10" class="tp">Billing-Alert-5USD</text>
      <text x="400" y="56" font-size="9" class="tc">> $5</text>

      <circle cx="260" cy="76" r="4" fill="#4CAF50"/>
      <text x="270" y="80" font-size="10" class="tp">App-Errors-High</text>
      <text x="400" y="80" font-size="9" class="tc">> 5/5min</text>
    </g>

    <!-- Missing data note -->
    <rect x="50" y="560" width="480" height="22" rx="6" fill="#1A73E8" fill-opacity="0.06" stroke="#1A73E8" stroke-width="0.8"/>
    <text x="290" y="575" text-anchor="middle" font-size="9" fill="#1A73E8">treat-missing-data = notBreaching — no false alerts when resources are stopped</text>

    <!-- State badges -->
    <rect x="50" y="590" width="60" height="18" rx="9" fill="#4CAF50" fill-opacity="0.12" stroke="#4CAF50" stroke-width="0.8"/>
    <text x="80" y="603" text-anchor="middle" font-size="8" font-weight="600" fill="#4CAF50">8 OK</text>
    <rect x="120" y="590" width="70" height="18" rx="9" fill="#E53935" fill-opacity="0.12" stroke="#E53935" stroke-width="0.8"/>
    <text x="155" y="603" text-anchor="middle" font-size="8" font-weight="600" fill="#E53935">0 ALARM</text>
  </g>

  <!-- ═══════════════════════════════════════════ -->
  <!-- BOTTOM RIGHT: CloudWatch Dashboard          -->
  <!-- ═══════════════════════════════════════════ -->
  <g class="fu" style="animation-delay:0.7s">
    <rect x="580" y="400" width="590" height="230" rx="14" class="card" stroke-width="1.5" filter="url(#sh)"/>
    <rect x="580" y="400" width="590" height="44" rx="14" fill="url(#gDash)"/>
    <rect x="580" y="432" width="590" height="12" fill="url(#gDash)"/>
    <!-- Dashboard icon -->
    <g transform="translate(600, 411)">
      <rect x="0" y="0" width="8" height="14" rx="1" fill="#fff" opacity="0.9"/>
      <rect x="10" y="4" width="8" height="10" rx="1" fill="#fff" opacity="0.7"/>
      <rect x="20" y="2" width="8" height="12" rx="1" fill="#fff" opacity="0.8"/>
    </g>
    <text x="640" y="428" font-size="14" font-weight="700" class="tw">CloudWatch Dashboard</text>
    <text x="840" y="428" font-size="10" class="tw" opacity="0.8">AWS-Bootcamp-Dashboard</text>

    <!-- Widget grid (3x2) -->
    <g transform="translate(600, 460)">
      <!-- Widget 1 -->
      <rect x="0" y="0" width="175" height="50" rx="6" class="metric-card" stroke-width="1"/>
      <circle cx="12" cy="12" r="4" fill="#FF9900"/>
      <text x="22" y="16" font-size="9" font-weight="600" class="tp">EC2 CPU</text>
      <polyline points="8,35 30,28 55,32 80,25 105,30 130,22 155,28" fill="none" stroke="#FF9900" stroke-width="1.5" stroke-linecap="round"/>

      <!-- Widget 2 -->
      <rect x="185" y="0" width="175" height="50" rx="6" class="metric-card" stroke-width="1"/>
      <circle cx="197" cy="12" r="4" fill="#4CAF50"/>
      <text x="207" y="16" font-size="9" font-weight="600" class="tp">EC2 Network</text>
      <polyline points="193,38 215,30 240,34 265,26 290,32 315,25 340,30" fill="none" stroke="#4CAF50" stroke-width="1.5" stroke-linecap="round"/>

      <!-- Widget 3 -->
      <rect x="370" y="0" width="175" height="50" rx="6" class="metric-card" stroke-width="1"/>
      <circle cx="382" cy="12" r="4" fill="#9C27B0"/>
      <text x="392" y="16" font-size="9" font-weight="600" class="tp">RDS CPU</text>
      <polyline points="378,38 400,32 425,35 450,28 475,34 500,30 525,26" fill="none" stroke="#9C27B0" stroke-width="1.5" stroke-linecap="round"/>

      <!-- Widget 4 -->
      <rect x="0" y="60" width="175" height="50" rx="6" class="metric-card" stroke-width="1"/>
      <circle cx="12" cy="72" r="4" fill="#E91E63"/>
      <text x="22" y="76" font-size="9" font-weight="600" class="tp">RDS Connections</text>
      <text x="90" y="98" text-anchor="middle" font-size="22" font-weight="300" class="tp">23</text>

      <!-- Widget 5 -->
      <rect x="185" y="60" width="175" height="50" rx="6" class="metric-card" stroke-width="1"/>
      <circle cx="197" cy="72" r="4" fill="#FF5722"/>
      <text x="207" y="76" font-size="9" font-weight="600" class="tp">Monthly Billing</text>
      <text x="275" y="98" text-anchor="middle" font-size="22" font-weight="300" fill="#FF5722">$2.47</text>

      <!-- Widget 6 -->
      <rect x="370" y="60" width="175" height="50" rx="6" class="metric-card" stroke-width="1"/>
      <circle cx="382" cy="72" r="4" fill="#FF6B6B"/>
      <text x="392" y="76" font-size="9" font-weight="600" class="tp">Alarm Status</text>
      <!-- Mini status dots -->
      <circle cx="385" cy="96" r="3" fill="#4CAF50"/><circle cx="397" cy="96" r="3" fill="#4CAF50"/>
      <circle cx="409" cy="96" r="3" fill="#4CAF50"/><circle cx="421" cy="96" r="3" fill="#4CAF50"/>
      <circle cx="433" cy="96" r="3" fill="#4CAF50"/><circle cx="445" cy="96" r="3" fill="#4CAF50"/>
      <circle cx="457" cy="96" r="3" fill="#4CAF50"/><circle cx="469" cy="96" r="3" fill="#4CAF50"/>
      <text x="490" y="100" font-size="8" fill="#4CAF50">8/8 OK</text>
    </g>

    <!-- Dashboard footer -->
    <text x="600" y="590" font-size="9" class="tc">6 widgets · Auto-refresh: 1 minute · Free Tier (3 dashboards)</text>
  </g>

  <!-- ═══════════════════════════════════════════ -->
  <!-- BOTTOM: SNS Notification                    -->
  <!-- ═══════════════════════════════════════════ -->
  <g class="fu" style="animation-delay:0.8s">
    <!-- Arrow from Alarms to SNS -->
    <line x1="290" y1="632" x2="290" y2="665" stroke="#FF4F8B" stroke-width="2" class="df" marker-end="url(#aSN)"/>
    <circle r="3" fill="#FF4F8B" class="pg"><animateMotion dur="1.5s" repeatCount="indefinite" path="M 0,-33 L 0,0"/></circle>
    <text x="300" y="655" font-size="8" fill="#FF4F8B">ALARM state</text>

    <rect x="140" y="670" width="920" height="52" rx="14" class="card" stroke-width="1.5" filter="url(#sh)"/>
    <rect x="140" y="670" width="920" height="52" rx="14" fill="url(#gSNS)" fill-opacity="0.06"/>
    <rect x="140" y="670" width="5" height="52" rx="2" fill="url(#gSNS)"/>

    <!-- Bell icon -->
    <g transform="translate(165, 682)">
      <path d="M 10,0 Q 10,0 5,8 L 2,14 L 18,14 L 15,8 Q 10,0 10,0" fill="none" stroke="#FF4F8B" stroke-width="2" stroke-linejoin="round"/>
      <line x1="8" y1="16" x2="12" y2="16" stroke="#FF4F8B" stroke-width="1.5" stroke-linecap="round"/>
    </g>
    <text x="200" y="700" font-size="14" font-weight="700" fill="#FF4F8B">SNS Topic: monitoring-alerts</text>
    <text x="500" y="700" font-size="11" class="tp">→</text>
    <text x="520" y="700" font-size="13" font-weight="600" class="tp">📧 Email Notification</text>
    <text x="700" y="700" font-size="10" class="tc">Subscriber: your@email.com · Confirmed</text>
    <rect x="920" y="686" width="120" height="22" rx="11" fill="#FF4F8B" fill-opacity="0.1" stroke="#FF4F8B" stroke-width="1"/>
    <text x="980" y="701" text-anchor="middle" font-size="9" font-weight="600" fill="#FF4F8B">✓ 1K emails/mo free</text>
  </g>

  <!-- ═══ FOOTER ═══ -->
  <g class="fu" style="animation-delay:0.9s">
    <rect x="30" y="740" width="1140" height="40" rx="8" class="section" stroke-width="1"/>
    <text x="50" y="764" font-size="10" class="tc">Services: </text>
    <circle cx="110" cy="760" r="4" fill="#FF9900"/><text x="120" y="764" font-size="9" class="tc">EC2</text>
    <circle cx="155" cy="760" r="4" fill="#9C27B0"/><text x="165" y="764" font-size="9" class="tc">RDS</text>
    <circle cx="200" cy="760" r="4" fill="#FF5722"/><text x="210" y="764" font-size="9" class="tc">Billing</text>
    <circle cx="260" cy="760" r="4" fill="#2E7D32"/><text x="270" y="764" font-size="9" class="tc">Logs</text>
    <circle cx="310" cy="760" r="4" fill="#F58536"/><text x="320" y="764" font-size="9" class="tc">CloudWatch</text>
    <circle cx="400" cy="760" r="4" fill="#E53935"/><text x="410" y="764" font-size="9" class="tc">Alarms</text>
    <circle cx="460" cy="760" r="4" fill="#1A73E8"/><text x="470" y="764" font-size="9" class="tc">Dashboard</text>
    <circle cx="540" cy="760" r="4" fill="#FF4F8B"/><text x="550" y="764" font-size="9" class="tc">SNS</text>

    <rect x="650" y="752" width="110" height="18" rx="9" fill="#10B981" fill-opacity="0.12" stroke="#10B981" stroke-width="0.8"/>
    <text x="705" y="765" text-anchor="middle" font-size="8" font-weight="600" fill="#10B981">✓ $0.00 Free Tier</text>

    <text x="1145" y="764" text-anchor="end" font-size="8" class="tc" opacity="0.5">Project 07 — CloudWatch Monitoring</text>
  </g>
</svg>
