<svg width="860" height="640" viewBox="0 0 860 640" xmlns="http://www.w3.org/2000/svg" font-family="Arial, sans-serif">
  <defs>
    <marker id="arrBlue" viewBox="0 0 10 10" refX="9" refY="5" markerWidth="6" markerHeight="6" orient="auto"><path d="M1 1L9 5L1 9" fill="none" stroke="#1a73e8" stroke-width="2" stroke-linecap="round"/></marker>
    <marker id="arrOrange" viewBox="0 0 10 10" refX="9" refY="5" markerWidth="6" markerHeight="6" orient="auto"><path d="M1 1L9 5L1 9" fill="none" stroke="#ff9900" stroke-width="2" stroke-linecap="round"/></marker>
    <marker id="arrPurple" viewBox="0 0 10 10" refX="9" refY="5" markerWidth="6" markerHeight="6" orient="auto"><path d="M1 1L9 5L1 9" fill="none" stroke="#6f42c1" stroke-width="2" stroke-linecap="round"/></marker>
  </defs>
  <rect width="860" height="640" fill="#f8f9fa" rx="12"/>
  <text x="430" y="34" text-anchor="middle" font-size="18" font-weight="bold" fill="#232f3e">Project 6 — Two-Tier Architecture: EC2 + RDS MySQL</text>
  <text x="430" y="54" text-anchor="middle" font-size="12" fill="#666">VPC: 10.0.0.0/16 · Region: us-east-1 · MySQL 8.0</text>
  <rect x="320" y="68" width="220" height="42" rx="8" fill="#e8f4fd" stroke="#1a73e8" stroke-width="1.5"/>
  <text x="430" y="88" text-anchor="middle" font-size="13" font-weight="bold" fill="#1a73e8">Internet</text>
  <text x="430" y="104" text-anchor="middle" font-size="11" fill="#1a73e8">SSH :22 (My IP) · HTTP :80</text>
  <line x1="430" y1="110" x2="430" y2="134" stroke="#1a73e8" stroke-width="2" marker-end="url(#arrBlue)"/>
  <rect x="300" y="134" width="260" height="40" rx="8" fill="#fff3cd" stroke="#ff9900" stroke-width="1.5"/>
  <text x="430" y="152" text-anchor="middle" font-size="12" font-weight="bold" fill="#b36800">Internet Gateway — my-vpc-igw</text>
  <text x="430" y="168" text-anchor="middle" font-size="11" fill="#b36800">Bidirectional internet access</text>
  <rect x="28" y="188" width="804" height="408" rx="14" fill="none" stroke="#232f3e" stroke-width="2" stroke-dasharray="8,4"/>
  <text x="48" y="208" font-size="13" font-weight="bold" fill="#232f3e">VPC: my-custom-vpc — 10.0.0.0/16</text>
  <rect x="44" y="216" width="772" height="148" rx="10" fill="#d4edda" stroke="#28a745" stroke-width="1.5"/>
  <text x="430" y="234" text-anchor="middle" font-size="12" font-weight="bold" fill="#155724">Public Subnet A — 10.0.1.0/24 · us-east-1a</text>
  <rect x="220" y="244" width="380" height="104" rx="8" fill="#fff" stroke="#28a745" stroke-width="1.5"/>
  <text x="410" y="264" text-anchor="middle" font-size="13" font-weight="bold" fill="#155724">EC2 App Server</text>
  <text x="410" y="281" text-anchor="middle" font-size="11" fill="#444">Amazon Linux 2023 · t2.micro · Public IP</text>
  <text x="410" y="297" text-anchor="middle" font-size="11" fill="#444">MySQL Client + Apache · IAM: ec2-app-role</text>
  <text x="410" y="313" text-anchor="middle" font-size="11" fill="#28a745">ec2-app-sg: SSH:22 (My IP) · HTTP:80</text>
  <text x="410" y="329" text-anchor="middle" font-size="11" fill="#555">Subnet: public-subnet-a · 10.0.1.X</text>
  <rect x="614" y="216" width="190" height="148" rx="8" fill="#f0f0ff" stroke="#6f42c1" stroke-width="1.5" stroke-dasharray="5,3"/>
  <text x="709" y="236" text-anchor="middle" font-size="11" font-weight="bold" fill="#6f42c1">Secrets Manager</text>
  <text x="709" y="254" text-anchor="middle" font-size="10" fill="#555">rds/myapp/credentials</text>
  <text x="709" y="270" text-anchor="middle" font-size="10" fill="#444">username: admin</text>
  <text x="709" y="286" text-anchor="middle" font-size="10" fill="#444">password: ••••••••</text>
  <text x="709" y="302" text-anchor="middle" font-size="10" fill="#444">engine: mysql</text>
  <text x="709" y="318" text-anchor="middle" font-size="10" fill="#444">port: 3306</text>
  <text x="709" y="334" text-anchor="middle" font-size="10" fill="#444">dbname: appdb</text>
  <text x="709" y="352" text-anchor="middle" font-size="10" fill="#6f42c1">ec2-app-role scoped access</text>
  <rect x="46" y="216" width="162" height="148" rx="8" fill="#fff8e1" stroke="#ff9900" stroke-width="1.5" stroke-dasharray="5,3"/>
  <text x="127" y="236" text-anchor="middle" font-size="11" font-weight="bold" fill="#b36800">CloudWatch</text>
  <text x="127" y="253" text-anchor="middle" font-size="10" fill="#555">RDS Metrics:</text>
  <text x="127" y="269" text-anchor="middle" font-size="10" fill="#444">CPUUtilization</text>
  <text x="127" y="285" text-anchor="middle" font-size="10" fill="#444">DatabaseConnections</text>
  <text x="127" y="301" text-anchor="middle" font-size="10" fill="#444">FreeStorageSpace</text>
  <text x="127" y="317" text-anchor="middle" font-size="10" fill="#444">ReadIOPS / WriteIOPS</text>
  <text x="127" y="333" text-anchor="middle" font-size="10" fill="#444">FreeableMemory</text>
  <text x="127" y="352" text-anchor="middle" font-size="10" fill="#b36800">Auto every 60 sec</text>
  <line x1="600" y1="174" x2="430" y2="174" stroke="#ff9900" stroke-width="1.5"/>
  <line x1="430" y1="174" x2="430" y2="244" stroke="#ff9900" stroke-width="2" marker-end="url(#arrOrange)"/>
  <line x1="600" y1="174" x2="600" y2="188" stroke="#ff9900" stroke-width="1"/>
  <line x1="430" y1="174" x2="430" y2="134" stroke="#ff9900" stroke-width="1"/>
  <line x1="600" y1="296" x2="614" y2="296" stroke="#6f42c1" stroke-width="1.5" stroke-dasharray="4,3" marker-end="url(#arrPurple)"/>
  <line x1="208" y1="296" x2="220" y2="296" stroke="#ff9900" stroke-width="1.5" stroke-dasharray="4,3" marker-end="url(#arrOrange)"/>
  <rect x="44" y="380" width="772" height="200" rx="10" fill="#fce8e8" stroke="#dc3545" stroke-width="1.5"/>
  <text x="430" y="400" text-anchor="middle" font-size="12" font-weight="bold" fill="#721c24">Private Subnets — DB Tier (No Internet Access)</text>
  <text x="200" y="418" text-anchor="middle" font-size="11" fill="#721c24">private-subnet-a · 10.0.3.0/24 · us-east-1a</text>
  <text x="660" y="418" text-anchor="middle" font-size="11" fill="#721c24">private-subnet-b · 10.0.4.0/24 · us-east-1b</text>
  <rect x="160" y="426" width="540" height="138" rx="8" fill="#fff" stroke="#dc3545" stroke-width="1.5"/>
  <text x="430" y="447" text-anchor="middle" font-size="13" font-weight="bold" fill="#721c24">RDS MySQL 8.0 — myapp-database</text>
  <text x="430" y="465" text-anchor="middle" font-size="11" fill="#444">db.t3.micro · 20 GB gp2 · Automated backups · Encryption ON</text>
  <text x="430" y="481" text-anchor="middle" font-size="11" fill="#444">PubliclyAccessible: false · No public IP assigned</text>
  <text x="430" y="497" text-anchor="middle" font-size="11" fill="#dc3545">rds-sg: MySQL port 3306 ← ec2-app-sg only (SG chaining)</text>
  <text x="430" y="513" text-anchor="middle" font-size="11" fill="#444">Database: appdb · Tables: users · products · orders</text>
  <text x="430" y="529" text-anchor="middle" font-size="10" fill="#888">myapp-database.xxxxxxxx.us-east-1.rds.amazonaws.com:3306</text>
  <text x="430" y="548" text-anchor="middle" font-size="11" fill="#721c24">Subnet Group: rds-subnet-group (us-east-1a + us-east-1b)</text>
  <line x1="430" y1="348" x2="430" y2="426" stroke="#6f42c1" stroke-width="2.5" stroke-dasharray="6,3" marker-end="url(#arrPurple)"/>
  <rect x="340" y="374" width="180" height="22" rx="4" fill="#f8f4ff" stroke="#6f42c1" stroke-width="1"/>
  <text x="430" y="389" text-anchor="middle" font-size="11" font-weight="bold" fill="#6f42c1">MySQL :3306 — SG chaining</text>
  <rect x="28" y="604" width="804" height="28" rx="6" fill="#f1f3f4" stroke="#dee2e6" stroke-width="1"/>
  <line x1="48" y1="618" x2="70" y2="618" stroke="#ff9900" stroke-width="2"/>
  <text x="76" y="622" font-size="10" fill="#444">Internet / IGW route</text>
  <line x1="180" y1="618" x2="202" y2="618" stroke="#6f42c1" stroke-width="2" stroke-dasharray="5,3"/>
  <text x="208" y="622" font-size="10" fill="#444">MySQL SG chaining :3306</text>
  <line x1="340" y1="618" x2="362" y2="618" stroke="#6f42c1" stroke-width="1.5" stroke-dasharray="4,3"/>
  <text x="368" y="622" font-size="10" fill="#444">Secrets Manager fetch</text>
  <line x1="490" y1="618" x2="512" y2="618" stroke="#ff9900" stroke-width="1.5" stroke-dasharray="4,3"/>
  <text x="518" y="622" font-size="10" fill="#444">CloudWatch metrics</text>
  <rect x="628" y="611" width="12" height="12" rx="2" fill="#d4edda" stroke="#28a745" stroke-width="1"/>
  <text x="644" y="622" font-size="10" fill="#444">Public subnet</text>
  <rect x="720" y="611" width="12" height="12" rx="2" fill="#fce8e8" stroke="#dc3545" stroke-width="1"/>
  <text x="736" y="622" font-size="10" fill="#444">Private subnet</text>
</svg>