<svg width="900" height="620" viewBox="0 0 900 620" xmlns="http://www.w3.org/2000/svg" font-family="Arial, sans-serif">
  <rect width="900" height="620" fill="#f8f9fa" rx="12"/>
  <text x="450" y="36" text-anchor="middle" font-size="18" font-weight="bold" fill="#232f3e">Project 5 — Custom VPC Architecture</text>
  <text x="450" y="56" text-anchor="middle" font-size="12" fill="#666">CIDR: 10.0.0.0/16 · Region: us-east-1</text>
  <rect x="350" y="72" width="200" height="44" rx="8" fill="#e8f4fd" stroke="#1a73e8" stroke-width="1.5"/>
  <text x="450" y="92" text-anchor="middle" font-size="13" font-weight="bold" fill="#1a73e8">Internet</text>
  <text x="450" y="108" text-anchor="middle" font-size="11" fill="#1a73e8">Public Traffic</text>
  <defs>
    <marker id="arrowBlue" viewBox="0 0 10 10" refX="9" refY="5" markerWidth="6" markerHeight="6" orient="auto"><path d="M1 1L9 5L1 9" fill="none" stroke="#1a73e8" stroke-width="2" stroke-linecap="round"/></marker>
    <marker id="arrowOrange" viewBox="0 0 10 10" refX="9" refY="5" markerWidth="6" markerHeight="6" orient="auto"><path d="M1 1L9 5L1 9" fill="none" stroke="#ff9900" stroke-width="2" stroke-linecap="round"/></marker>
    <marker id="arrowPurple" viewBox="0 0 10 10" refX="9" refY="5" markerWidth="6" markerHeight="6" orient="auto"><path d="M1 1L9 5L1 9" fill="none" stroke="#6f42c1" stroke-width="2" stroke-linecap="round"/></marker>
    <marker id="arrowTeal" viewBox="0 0 10 10" refX="9" refY="5" markerWidth="6" markerHeight="6" orient="auto"><path d="M1 1L9 5L1 9" fill="none" stroke="#17a2b8" stroke-width="1.5" stroke-linecap="round"/></marker>
  </defs>
  <line x1="450" y1="116" x2="450" y2="146" stroke="#1a73e8" stroke-width="2" marker-end="url(#arrowBlue)"/>
  <rect x="320" y="146" width="260" height="44" rx="8" fill="#fff3cd" stroke="#ff9900" stroke-width="1.5"/>
  <text x="450" y="165" text-anchor="middle" font-size="13" font-weight="bold" fill="#b36800">Internet Gateway (IGW)</text>
  <text x="450" y="181" text-anchor="middle" font-size="11" fill="#b36800">my-vpc-igw · Bidirectional</text>
  <line x1="450" y1="190" x2="450" y2="206" stroke="#ff9900" stroke-width="2"/>
  <line x1="235" y1="206" x2="665" y2="206" stroke="#ff9900" stroke-width="2"/>
  <line x1="235" y1="206" x2="235" y2="268" stroke="#ff9900" stroke-width="2" marker-end="url(#arrowOrange)"/>
  <line x1="665" y1="206" x2="665" y2="268" stroke="#ff9900" stroke-width="2" marker-end="url(#arrowOrange)"/>
  <rect x="30" y="214" width="840" height="352" rx="14" fill="none" stroke="#232f3e" stroke-width="2" stroke-dasharray="8,4"/>
  <text x="50" y="234" font-size="13" font-weight="bold" fill="#232f3e">VPC: my-custom-vpc · 10.0.0.0/16</text>
  <rect x="46" y="244" width="378" height="306" rx="10" fill="#f0f7ff" stroke="#4a90d9" stroke-width="1" stroke-dasharray="5,3"/>
  <text x="235" y="262" text-anchor="middle" font-size="12" font-weight="bold" fill="#4a90d9">Availability Zone A · us-east-1a</text>
  <rect x="476" y="244" width="378" height="306" rx="10" fill="#fff5f0" stroke="#e8632a" stroke-width="1" stroke-dasharray="5,3"/>
  <text x="665" y="262" text-anchor="middle" font-size="12" font-weight="bold" fill="#e8632a">Availability Zone B · us-east-1b</text>
  <rect x="62" y="272" width="346" height="120" rx="8" fill="#d4edda" stroke="#28a745" stroke-width="1.5"/>
  <text x="235" y="290" text-anchor="middle" font-size="12" font-weight="bold" fill="#155724">Public Subnet A · 10.0.1.0/24</text>
  <rect x="78" y="298" width="140" height="78" rx="6" fill="#fff" stroke="#28a745" stroke-width="1"/>
  <text x="148" y="316" text-anchor="middle" font-size="11" font-weight="bold" fill="#155724">Bastion Host</text>
  <text x="148" y="332" text-anchor="middle" font-size="10" fill="#444">Amazon Linux 2023</text>
  <text x="148" y="347" text-anchor="middle" font-size="10" fill="#444">t2.micro</text>
  <text x="148" y="362" text-anchor="middle" font-size="10" fill="#28a745">Public IP: 54.x.x.x</text>
  <rect x="234" y="298" width="158" height="78" rx="6" fill="#fff3cd" stroke="#ff9900" stroke-width="1"/>
  <text x="313" y="316" text-anchor="middle" font-size="11" font-weight="bold" fill="#b36800">NAT Gateway</text>
  <text x="313" y="332" text-anchor="middle" font-size="10" fill="#444">Elastic IP attached</text>
  <text x="313" y="347" text-anchor="middle" font-size="10" fill="#444">Outbound only</text>
  <text x="313" y="362" text-anchor="middle" font-size="10" fill="#b36800">EIP: 3.x.x.x</text>
  <rect x="62" y="408" width="346" height="120" rx="8" fill="#fce8e8" stroke="#dc3545" stroke-width="1.5"/>
  <text x="235" y="426" text-anchor="middle" font-size="12" font-weight="bold" fill="#721c24">Private Subnet A · 10.0.3.0/24</text>
  <rect x="78" y="434" width="314" height="78" rx="6" fill="#fff" stroke="#dc3545" stroke-width="1"/>
  <text x="235" y="452" text-anchor="middle" font-size="11" font-weight="bold" fill="#721c24">Private Instance</text>
  <text x="235" y="468" text-anchor="middle" font-size="10" fill="#444">Amazon Linux 2023 · t2.micro</text>
  <text x="235" y="483" text-anchor="middle" font-size="10" fill="#dc3545">No Public IP · 10.0.3.X</text>
  <text x="235" y="498" text-anchor="middle" font-size="10" fill="#666">Internet via NAT Gateway only</text>
  <rect x="492" y="272" width="346" height="120" rx="8" fill="#d4edda" stroke="#28a745" stroke-width="1.5"/>
  <text x="665" y="290" text-anchor="middle" font-size="12" font-weight="bold" fill="#155724">Public Subnet B · 10.0.2.0/24</text>
  <rect x="508" y="298" width="314" height="78" rx="6" fill="#f8f9fa" stroke="#adb5bd" stroke-width="1" stroke-dasharray="4,3"/>
  <text x="665" y="332" text-anchor="middle" font-size="11" fill="#6c757d">Future: ALB Node</text>
  <text x="665" y="350" text-anchor="middle" font-size="10" fill="#adb5bd">Project 10 — Auto Scaling + ALB</text>
  <rect x="492" y="408" width="346" height="120" rx="8" fill="#fce8e8" stroke="#dc3545" stroke-width="1.5"/>
  <text x="665" y="426" text-anchor="middle" font-size="12" font-weight="bold" fill="#721c24">Private Subnet B · 10.0.4.0/24</text>
  <rect x="508" y="434" width="314" height="78" rx="6" fill="#f8f9fa" stroke="#adb5bd" stroke-width="1" stroke-dasharray="4,3"/>
  <text x="665" y="468" text-anchor="middle" font-size="11" fill="#6c757d">Future: RDS Multi-AZ Standby</text>
  <text x="665" y="486" text-anchor="middle" font-size="10" fill="#adb5bd">Project 6 — RDS + EC2</text>
  <line x1="313" y1="376" x2="235" y2="408" stroke="#6f42c1" stroke-width="2" stroke-dasharray="5,3" marker-end="url(#arrowPurple)"/>
  <line x1="148" y1="376" x2="148" y2="434" stroke="#17a2b8" stroke-width="1.5" stroke-dasharray="4,3" marker-end="url(#arrowTeal)"/>
  <rect x="30" y="578" width="840" height="32" rx="6" fill="#f1f3f4" stroke="#dee2e6" stroke-width="1"/>
  <line x1="55" y1="594" x2="80" y2="594" stroke="#ff9900" stroke-width="2"/>
  <text x="86" y="598" font-size="11" fill="#444">IGW route (bidirectional)</text>
  <line x1="220" y1="594" x2="245" y2="594" stroke="#6f42c1" stroke-width="2" stroke-dasharray="5,3"/>
  <text x="251" y="598" font-size="11" fill="#444">NAT route (outbound only)</text>
  <line x1="395" y1="594" x2="420" y2="594" stroke="#17a2b8" stroke-width="1.5" stroke-dasharray="4,3"/>
  <text x="426" y="598" font-size="11" fill="#444">SSH hop (bastion)</text>
  <rect x="560" y="586" width="12" height="12" rx="2" fill="#d4edda" stroke="#28a745" stroke-width="1"/>
  <text x="577" y="598" font-size="11" fill="#444">Public subnet</text>
  <rect x="670" y="586" width="12" height="12" rx="2" fill="#fce8e8" stroke="#dc3545" stroke-width="1"/>
  <text x="687" y="598" font-size="11" fill="#444">Private subnet</text>
</svg>