<svg viewBox="0 0 1100 780" xmlns="http://www.w3.org/2000/svg" font-family="'Segoe UI', system-ui, -apple-system, sans-serif">
  <style>
    .bg { fill: url(#bgL); }
    .gw { opacity: 0.05; }
    .card { fill: #ffffff; stroke: #e2e8f0; }
    .tt { fill: #0f172a; }
    .ts { fill: #64748b; }
    .tp { fill: #1e293b; }
    .tc { fill: #64748b; }
    .tw { fill: #ffffff; }
    .dv { stroke: #e2e8f0; }
    .cbg { fill: #f1f5f9; stroke: #e2e8f0; }
    .sbg { fill: #f8fafc; }

    @media (prefers-color-scheme: dark) {
      .bg { fill: url(#bgD); }
      .gw { opacity: 0.025; }
      .card { fill: #1a2444; stroke: #2a3a5c; }
      .tt { fill: #f0f6fc; }
      .ts { fill: #8899bb; }
      .tp { fill: #ccd6f6; }
      .tc { fill: #8899bb; }
      .dv { stroke: #2a3a5c; }
      .cbg { fill: #0f1629; stroke: #2a3a5c; }
      .sbg { fill: #111833; }
    }

    @keyframes dashAnim { to { stroke-dashoffset: -20; } }
    .dash { stroke-dasharray: 6 4; animation: dashAnim 1s linear infinite; }
    @keyframes pls { 0%,100% { opacity:0.5; } 50% { opacity:1; } }
    .pls { animation: pls 2.5s ease-in-out infinite; }
    @keyframes fIn { from { opacity:0; transform:translateY(8px); } to { opacity:1; transform:translateY(0); } }
    .fi { animation: fIn 0.5s ease-out both; }
  </style>

  <defs>
    <linearGradient id="bgL" x1="0%" y1="0%" x2="0%" y2="100%">
      <stop offset="0%" stop-color="#f0f4f8"/><stop offset="100%" stop-color="#e2e8f0"/>
    </linearGradient>
    <linearGradient id="bgD" x1="0%" y1="0%" x2="0%" y2="100%">
      <stop offset="0%" stop-color="#0a0e17"/><stop offset="100%" stop-color="#141b2b"/>
    </linearGradient>
    <linearGradient id="gL" x1="0%" y1="0%" x2="100%" y2="100%">
      <stop offset="0%" stop-color="#FF9900"/><stop offset="100%" stop-color="#E07C1F"/>
    </linearGradient>
    <linearGradient id="gD" x1="0%" y1="0%" x2="100%" y2="100%">
      <stop offset="0%" stop-color="#2563EB"/><stop offset="100%" stop-color="#1D4ED8"/>
    </linearGradient>
    <linearGradient id="gI" x1="0%" y1="0%" x2="100%" y2="100%">
      <stop offset="0%" stop-color="#10B981"/><stop offset="100%" stop-color="#059669"/>
    </linearGradient>
    <linearGradient id="gCw" x1="0%" y1="0%" x2="100%" y2="100%">
      <stop offset="0%" stop-color="#06B6D4"/><stop offset="100%" stop-color="#0891B2"/>
    </linearGradient>

    <filter id="sh" x="-6%" y="-6%" width="112%" height="118%">
      <feDropShadow dx="0" dy="3" stdDeviation="6" flood-color="#000" flood-opacity="0.15"/>
    </filter>
    <filter id="gl" x="-20%" y="-20%" width="140%" height="140%">
      <feGaussianBlur stdDeviation="2" result="b"/>
      <feMerge><feMergeNode in="b"/><feMergeNode in="SourceGraphic"/></feMerge>
    </filter>

    <marker id="aO" markerWidth="9" markerHeight="6" refX="8" refY="3" orient="auto">
      <polygon points="0 0,9 3,0 6" fill="#FF9900"/>
    </marker>
    <marker id="aB" markerWidth="9" markerHeight="6" refX="8" refY="3" orient="auto">
      <polygon points="0 0,9 3,0 6" fill="#2563EB"/>
    </marker>
    <marker id="aG" markerWidth="9" markerHeight="6" refX="8" refY="3" orient="auto">
      <polygon points="0 0,9 3,0 6" fill="#10B981"/>
    </marker>
    <marker id="aC" markerWidth="9" markerHeight="6" refX="8" refY="3" orient="auto">
      <polygon points="0 0,9 3,0 6" fill="#06B6D4"/>
    </marker>

    <pattern id="grid" width="30" height="30" patternUnits="userSpaceOnUse">
      <path d="M 30 0 L 0 0 0 30" fill="none" stroke="#94a3b8" stroke-width="0.5"/>
    </pattern>
  </defs>

  <rect width="1100" height="780" class="bg"/>
  <g class="gw"><rect width="1100" height="780" fill="url(#grid)"/></g>

  <!-- ═══ TITLE ═══ -->
  <text x="550" y="36" text-anchor="middle" font-size="23" font-weight="700" class="tt" filter="url(#gl)">Lambda ↔ DynamoDB Interaction</text>
  <text x="550" y="56" text-anchor="middle" font-size="12" class="ts">Event processing, routing logic, IAM permissions, and table design</text>
  <line x1="350" y1="66" x2="750" y2="66" stroke="url(#gL)" stroke-width="2" stroke-linecap="round" opacity="0.4"/>

  <!-- ═══════════════════════════════════════════════ -->
  <!-- LEFT SIDE: LAMBDA FUNCTION DETAIL               -->
  <!-- ═══════════════════════════════════════════════ -->
  <g class="fi" style="animation-delay:0.1s">
    <rect x="25" y="85" width="500" height="440" rx="14" class="card" stroke-width="1.5" filter="url(#sh)"/>
    <rect x="25" y="85" width="500" height="50" rx="14" fill="url(#gL)"/>
    <rect x="25" y="121" width="500" height="14" fill="url(#gL)"/>

    <!-- Lambda icon -->
    <text x="50" y="118" font-size="26" font-weight="800" class="tw" font-family="Georgia, serif">λ</text>
    <text x="78" y="116" font-size="15" font-weight="700" class="tw">Lambda Function: users-api</text>
    <text x="370" y="116" font-size="10" class="tw" opacity="0.8">Python 3.12 · 128 MB</text>

    <!-- Event Parsing Section -->
    <text x="45" y="162" font-size="12" font-weight="700" class="tp">① Event Parsing</text>
    <line x1="45" y1="168" x2="505" y2="168" stroke-width="0.5" class="dv"/>

    <rect x="45" y="175" width="460" height="55" rx="8" class="cbg" stroke-width="1"/>
    <text x="55" y="192" font-size="9" font-family="monospace" class="tc">def lambda_handler(event, context):</text>
    <text x="55" y="207" font-size="9" font-family="monospace" class="tc">    http_method = event['httpMethod']      # 'POST', 'GET', 'PUT', 'DELETE'</text>
    <text x="55" y="222" font-size="9" font-family="monospace" class="tc">    path_params = event.get('pathParameters')  # {'userId': 'abc-123'}</text>

    <!-- Routing Section -->
    <text x="45" y="252" font-size="12" font-weight="700" class="tp">② Request Routing</text>
    <line x1="45" y1="258" x2="505" y2="258" stroke-width="0.5" class="dv"/>

    <!-- Route cards -->
    <g transform="translate(45, 268)">
      <!-- POST route -->
      <rect x="0" y="0" width="220" height="40" rx="6" fill="#10B981" fill-opacity="0.06" stroke="#10B981" stroke-width="1"/>
      <rect x="8" y="8" width="42" height="18" rx="4" fill="#10B981"/>
      <text x="29" y="21" text-anchor="middle" font-size="8" font-weight="700" class="tw">POST</text>
      <text x="58" y="21" font-size="9" font-weight="600" class="tp">/users → create_user()</text>
      <text x="58" y="34" font-size="8" class="tc">uuid4() + PutItem</text>

      <!-- GET route -->
      <rect x="230" y="0" width="225" height="40" rx="6" fill="#2563EB" fill-opacity="0.06" stroke="#2563EB" stroke-width="1"/>
      <rect x="238" y="8" width="42" height="18" rx="4" fill="#2563EB"/>
      <text x="259" y="21" text-anchor="middle" font-size="8" font-weight="700" class="tw">GET</text>
      <text x="288" y="21" font-size="9" font-weight="600" class="tp">/users → list_users()</text>
      <text x="288" y="34" font-size="8" class="tc">Scan (all items)</text>

      <!-- GET single route -->
      <rect x="0" y="48" width="220" height="40" rx="6" fill="#2563EB" fill-opacity="0.06" stroke="#2563EB" stroke-width="1"/>
      <rect x="8" y="56" width="42" height="18" rx="4" fill="#2563EB"/>
      <text x="29" y="69" text-anchor="middle" font-size="8" font-weight="700" class="tw">GET</text>
      <text x="58" y="69" font-size="9" font-weight="600" class="tp">/users/{id} → get_user()</text>
      <text x="58" y="82" font-size="8" class="tc">GetItem by userId</text>

      <!-- PUT route -->
      <rect x="230" y="48" width="225" height="40" rx="6" fill="#F59E0B" fill-opacity="0.06" stroke="#F59E0B" stroke-width="1"/>
      <rect x="238" y="56" width="42" height="18" rx="4" fill="#F59E0B"/>
      <text x="259" y="69" text-anchor="middle" font-size="8" font-weight="700" class="tw">PUT</text>
      <text x="288" y="69" font-size="9" font-weight="600" class="tp">/users/{id} → update()</text>
      <text x="288" y="82" font-size="8" class="tc">UpdateItem expression</text>

      <!-- DELETE route -->
      <rect x="0" y="96" width="220" height="40" rx="6" fill="#EF4444" fill-opacity="0.06" stroke="#EF4444" stroke-width="1"/>
      <rect x="8" y="104" width="42" height="18" rx="4" fill="#EF4444"/>
      <text x="29" y="117" text-anchor="middle" font-size="8" font-weight="700" class="tw">DEL</text>
      <text x="58" y="117" font-size="9" font-weight="600" class="tp">/users/{id} → delete()</text>
      <text x="58" y="130" font-size="8" class="tc">DeleteItem by userId</text>

      <!-- Else route -->
      <rect x="230" y="96" width="225" height="40" rx="6" fill="#64748b" fill-opacity="0.06" stroke="#64748b" stroke-width="1"/>
      <rect x="238" y="104" width="42" height="18" rx="4" fill="#64748b"/>
      <text x="259" y="117" text-anchor="middle" font-size="8" font-weight="700" class="tw">ELSE</text>
      <text x="288" y="117" font-size="9" font-weight="600" class="tp">→ 400 Bad Request</text>
      <text x="288" y="130" font-size="8" class="tc">Unsupported method</text>
    </g>

    <!-- Response Builder Section -->
    <text x="45" y="415" font-size="12" font-weight="700" class="tp">③ Response Builder</text>
    <line x1="45" y1="421" x2="505" y2="421" stroke-width="0.5" class="dv"/>

    <rect x="45" y="428" width="460" height="50" rx="8" class="cbg" stroke-width="1"/>
    <text x="55" y="445" font-size="9" font-family="monospace" class="tc">return {</text>
    <text x="55" y="460" font-size="9" font-family="monospace" class="tc">  'statusCode': 200, 'headers': {'Access-Control-Allow-Origin':'*'}, 'body': json.dumps(data)</text>
    <text x="55" y="475" font-size="9" font-family="monospace" class="tc">}</text>

    <!-- boto3 connection note -->
    <rect x="45" y="492" width="460" height="22" rx="11" fill="#FF9900" fill-opacity="0.08"/>
    <text x="275" y="507" text-anchor="middle" font-size="9" fill="#FF9900">🔗 dynamodb = boto3.resource('dynamodb') · table = dynamodb.Table('users')</text>
  </g>

  <!-- ═══ CONNECTOR: Lambda → DynamoDB ═══ -->
  <line x1="527" y1="310" x2="573" y2="310" stroke="#2563EB" stroke-width="2.5" class="dash" marker-end="url(#aB)"/>
  <circle r="4" fill="#2563EB" class="pls">
    <animateMotion dur="1.5s" repeatCount="indefinite" path="M 527,0 L 573,0"/>
  </circle>
  <text x="550" y="295" text-anchor="middle" font-size="9" font-weight="600" fill="#2563EB">boto3</text>
  <text x="550" y="330" text-anchor="middle" font-size="8" class="tc">SDK calls</text>

  <!-- ═══════════════════════════════════════════════ -->
  <!-- RIGHT SIDE: DYNAMODB TABLE DETAIL               -->
  <!-- ═══════════════════════════════════════════════ -->
  <g class="fi" style="animation-delay:0.3s">
    <rect x="575" y="85" width="500" height="440" rx="14" class="card" stroke-width="1.5" filter="url(#sh)"/>
    <rect x="575" y="85" width="500" height="50" rx="14" fill="url(#gD)"/>
    <rect x="575" y="121" width="500" height="14" fill="url(#gD)"/>

    <!-- DynamoDB icon -->
    <g transform="translate(600, 97)">
      <rect x="0" y="0" width="20" height="5" rx="1.5" fill="#fff"/>
      <rect x="0" y="7" width="20" height="5" rx="1.5" fill="#fff" opacity="0.8"/>
      <rect x="0" y="14" width="20" height="5" rx="1.5" fill="#fff" opacity="0.6"/>
    </g>
    <text x="630" y="116" font-size="15" font-weight="700" class="tw">DynamoDB Table: users</text>
    <text x="890" y="116" font-size="10" class="tw" opacity="0.8">On-demand billing</text>

    <!-- Table Schema -->
    <text x="595" y="162" font-size="12" font-weight="700" class="tp">Table Schema</text>
    <line x1="595" y1="168" x2="1055" y2="168" stroke-width="0.5" class="dv"/>

    <!-- Schema table -->
    <rect x="595" y="175" width="460" height="26" rx="6" fill="#2563EB" fill-opacity="0.12"/>
    <text x="615" y="193" font-size="10" font-weight="700" fill="#2563EB">Attribute</text>
    <text x="775" y="193" font-size="10" font-weight="700" fill="#2563EB">Type</text>
    <text x="875" y="193" font-size="10" font-weight="700" fill="#2563EB">Key</text>
    <text x="975" y="193" font-size="10" font-weight="700" fill="#2563EB">Source</text>

    <!-- userId row -->
    <rect x="595" y="201" width="460" height="24" rx="0" class="sbg"/>
    <text x="615" y="218" font-size="10" font-weight="600" class="tp">userId</text>
    <text x="775" y="218" font-size="10" class="tc">String</text>
    <rect x="875" y="207" width="30" height="14" rx="3" fill="#2563EB" fill-opacity="0.15" stroke="#2563EB" stroke-width="0.8"/>
    <text x="890" y="218" text-anchor="middle" font-size="8" font-weight="700" fill="#2563EB">PK</text>
    <text x="975" y="218" font-size="10" class="tc">uuid4()</text>

    <!-- name row -->
    <rect x="595" y="225" width="460" height="24" rx="0" class="card" stroke-width="0"/>
    <text x="615" y="242" font-size="10" class="tp">name</text>
    <text x="775" y="242" font-size="10" class="tc">String</text>
    <text x="875" y="242" font-size="10" class="tc">—</text>
    <text x="975" y="242" font-size="10" class="tc">Request body</text>

    <!-- email row -->
    <rect x="595" y="249" width="460" height="24" rx="0" class="sbg"/>
    <text x="615" y="266" font-size="10" class="tp">email</text>
    <text x="775" y="266" font-size="10" class="tc">String</text>
    <text x="875" y="266" font-size="10" class="tc">—</text>
    <text x="975" y="266" font-size="10" class="tc">Request body</text>

    <!-- createdAt row -->
    <rect x="595" y="273" width="460" height="24" rx="0" class="card" stroke-width="0"/>
    <text x="615" y="290" font-size="10" class="tp">createdAt</text>
    <text x="775" y="290" font-size="10" class="tc">String</text>
    <text x="875" y="290" font-size="10" class="tc">—</text>
    <text x="975" y="290" font-size="10" class="tc">Auto (ISO 8601)</text>

    <!-- updatedAt row -->
    <rect x="595" y="297" width="460" height="24" rx="0" class="sbg"/>
    <text x="615" y="314" font-size="10" class="tp">updatedAt</text>
    <text x="775" y="314" font-size="10" class="tc">String</text>
    <text x="875" y="314" font-size="10" class="tc">—</text>
    <text x="975" y="314" font-size="10" class="tc">Auto on update</text>

    <!-- Table border -->
    <rect x="595" y="175" width="460" height="146" rx="6" fill="none" stroke-width="1" class="dv"/>

    <!-- SDK Operations Section -->
    <text x="595" y="350" font-size="12" font-weight="700" class="tp">SDK Operations (boto3)</text>
    <line x1="595" y1="356" x2="1055" y2="356" stroke-width="0.5" class="dv"/>

    <!-- Operations grid -->
    <rect x="595" y="365" width="220" height="50" rx="8" fill="#10B981" fill-opacity="0.06" stroke="#10B981" stroke-width="1"/>
    <text x="605" y="383" font-size="10" font-weight="600" fill="#10B981">table.put_item()</text>
    <text x="605" y="400" font-size="9" class="tc">Create: Full item write</text>

    <rect x="835" y="365" width="220" height="50" rx="8" fill="#2563EB" fill-opacity="0.06" stroke="#2563EB" stroke-width="1"/>
    <text x="845" y="383" font-size="10" font-weight="600" fill="#2563EB">table.get_item()</text>
    <text x="845" y="400" font-size="9" class="tc">Read: By partition key</text>

    <rect x="595" y="423" width="220" height="50" rx="8" fill="#F59E0B" fill-opacity="0.06" stroke="#F59E0B" stroke-width="1"/>
    <text x="605" y="441" font-size="10" font-weight="600" fill="#F59E0B">table.update_item()</text>
    <text x="605" y="458" font-size="9" class="tc">Update: SET expression</text>

    <rect x="835" y="423" width="220" height="50" rx="8" fill="#EF4444" fill-opacity="0.06" stroke="#EF4444" stroke-width="1"/>
    <text x="845" y="441" font-size="10" font-weight="600" fill="#EF4444">table.delete_item()</text>
    <text x="845" y="458" font-size="9" class="tc">Delete: By partition key</text>

    <!-- Scan note -->
    <rect x="595" y="481" width="460" height="30" rx="8" fill="#6366F1" fill-opacity="0.06" stroke="#6366F1" stroke-width="1"/>
    <text x="825" y="501" text-anchor="middle" font-size="10" font-weight="600" fill="#6366F1">table.scan() — List all (full table scan, use with caution at scale)</text>
  </g>

  <!-- ═══════════════════════════════════════════════ -->
  <!-- BOTTOM: IAM PERMISSIONS                         -->
  <!-- ═══════════════════════════════════════════════ -->
  <g class="fi" style="animation-delay:0.5s">
    <rect x="25" y="545" width="1050" height="100" rx="14" class="card" stroke-width="1.5" filter="url(#sh)"/>
    <rect x="25" y="545" width="1050" height="42" rx="14" fill="url(#gI)"/>
    <rect x="25" y="575" width="1050" height="12" fill="url(#gI)"/>

    <!-- Shield icon -->
    <g transform="translate(48, 555)">
      <path d="M 10,0 L 20,4 L 20,12 Q 20,18 10,22 Q 0,18 0,12 L 0,4 Z" fill="none" stroke="#fff" stroke-width="1.5"/>
      <path d="M 7,11 L 10,14 L 15,8" fill="none" stroke="#fff" stroke-width="1.5" stroke-linecap="round" stroke-linejoin="round"/>
    </g>
    <text x="78" y="572" font-size="14" font-weight="700" class="tw">IAM Execution Role — Least Privilege</text>

    <!-- Permission badges -->
    <g transform="translate(45, 600)">
      <rect x="0" y="0" width="120" height="24" rx="6" fill="#10B981" fill-opacity="0.08" stroke="#10B981" stroke-width="1"/>
      <text x="60" y="16" text-anchor="middle" font-size="9" font-weight="600" fill="#10B981">dynamodb:GetItem</text>

      <rect x="130" y="0" width="120" height="24" rx="6" fill="#10B981" fill-opacity="0.08" stroke="#10B981" stroke-width="1"/>
      <text x="190" y="16" text-anchor="middle" font-size="9" font-weight="600" fill="#10B981">dynamodb:PutItem</text>

      <rect x="260" y="0" width="140" height="24" rx="6" fill="#10B981" fill-opacity="0.08" stroke="#10B981" stroke-width="1"/>
      <text x="330" y="16" text-anchor="middle" font-size="9" font-weight="600" fill="#10B981">dynamodb:UpdateItem</text>

      <rect x="410" y="0" width="140" height="24" rx="6" fill="#10B981" fill-opacity="0.08" stroke="#10B981" stroke-width="1"/>
      <text x="480" y="16" text-anchor="middle" font-size="9" font-weight="600" fill="#10B981">dynamodb:DeleteItem</text>

      <rect x="560" y="0" width="100" height="24" rx="6" fill="#10B981" fill-opacity="0.08" stroke="#10B981" stroke-width="1"/>
      <text x="610" y="16" text-anchor="middle" font-size="9" font-weight="600" fill="#10B981">dynamodb:Scan</text>

      <rect x="670" y="0" width="110" height="24" rx="6" fill="#10B981" fill-opacity="0.08" stroke="#10B981" stroke-width="1"/>
      <text x="725" y="16" text-anchor="middle" font-size="9" font-weight="600" fill="#10B981">dynamodb:Query</text>

      <!-- Resource scope -->
      <text x="800" y="16" font-size="9" class="tc">Resource: arn:aws:dynamodb:*:*:table/users</text>
    </g>

    <text x="45" y="638" font-size="8" class="tc">Also includes: logs:CreateLogGroup, logs:CreateLogStream, logs:PutLogEvents (for CloudWatch Logs)</text>
  </g>

  <!-- ═══ CLOUDWATCH MONITORING ═══ -->
  <g class="fi" style="animation-delay:0.65s">
    <rect x="25" y="660" width="1050" height="80" rx="14" class="card" stroke-width="1.5" filter="url(#sh)"/>
    <rect x="25" y="660" width="1050" height="36" rx="14" fill="url(#gCw)"/>
    <rect x="25" y="684" width="1050" height="12" fill="url(#gCw)"/>

    <!-- Chart icon -->
    <g transform="translate(48, 669)">
      <polyline points="0,16 6,8 12,12 18,2" fill="none" stroke="#fff" stroke-width="1.8" stroke-linecap="round" stroke-linejoin="round"/>
      <line x1="0" y1="18" x2="20" y2="18" stroke="#fff" stroke-width="1.5"/>
    </g>
    <text x="78" y="685" font-size="13" font-weight="700" class="tw">CloudWatch — Automatic Lambda Monitoring</text>

    <!-- Metrics badges -->
    <g transform="translate(45, 710)">
      <rect x="0" y="0" width="110" height="22" rx="6" fill="#06B6D4" fill-opacity="0.08" stroke="#06B6D4" stroke-width="1"/>
      <text x="55" y="15" text-anchor="middle" font-size="9" fill="#06B6D4">⚡ Invocations</text>

      <rect x="120" y="0" width="80" height="22" rx="6" fill="#EF4444" fill-opacity="0.08" stroke="#EF4444" stroke-width="1"/>
      <text x="160" y="15" text-anchor="middle" font-size="9" fill="#EF4444">❌ Errors</text>

      <rect x="210" y="0" width="100" height="22" rx="6" fill="#F59E0B" fill-opacity="0.08" stroke="#F59E0B" stroke-width="1"/>
      <text x="260" y="15" text-anchor="middle" font-size="9" fill="#F59E0B">⏱ Duration</text>

      <rect x="320" y="0" width="100" height="22" rx="6" fill="#8B5CF6" fill-opacity="0.08" stroke="#8B5CF6" stroke-width="1"/>
      <text x="370" y="15" text-anchor="middle" font-size="9" fill="#8B5CF6">🚫 Throttles</text>

      <rect x="430" y="0" width="140" height="22" rx="6" fill="#06B6D4" fill-opacity="0.08" stroke="#06B6D4" stroke-width="1"/>
      <text x="500" y="15" text-anchor="middle" font-size="9" fill="#06B6D4">🔄 ConcurrentExec</text>

      <text x="590" y="15" font-size="9" class="tc">Log group: /aws/lambda/users-api · Retention: configurable</text>
    </g>
  </g>

  <!-- Footer -->
  <text x="550" y="768" text-anchor="middle" font-size="8" class="tc" opacity="0.5">Project 08 — Serverless REST API · Lambda ↔ DynamoDB Interaction</text>
</svg>
